<?xml version="1.0" encoding="utf-8"?>
<!-- Generator: Adobe Illustrator 15.0.0, SVG Export Plug-In . SVG Version: 6.00 Build 0)  -->
<!DOCTYPE svg PUBLIC "-//W3C//DTD SVG 1.1//EN" "http://www.w3.org/Graphics/SVG/1.1/DTD/svg11.dtd">
<svg version="1.1" id="レイヤー_1" xmlns="http://www.w3.org/2000/svg" xmlns:xlink="http://www.w3.org/1999/xlink" x="0px"
	 y="0px" width="891.635px" height="409.029px" viewBox="0 0 891.635 409.029" enable-background="new 0 0 891.635 409.029"
	 xml:space="preserve">
<path id="パス_13" fill="#CE0000" d="M2.084,194.163v17.925c0,0.331,0.269,0.6,0.6,0.6l0,0h127.838c0.332,0,0.601-0.269,0.601-0.6
	l0,0v-17.925c0-0.332-0.269-0.601-0.601-0.601l0,0H2.687c-0.331,0-0.6,0.269-0.6,0.601l0,0"/>
<path id="パス_14" fill="#FFFFFF" d="M353.729,59.15V0.883c0-0.331-0.269-0.6-0.6-0.6h-17.79c-0.331,0-0.601,0.269-0.601,0.6
	v40.664h-52.895c-0.331,0-0.6,0.269-0.6,0.6v16.4c0,0.331,0.269,0.6,0.6,0.6h52.892v47.843h-45.389c-0.331,0.001-0.6,0.27-0.6,0.601
	v16.535c0,0.331,0.269,0.6,0.6,0.6h64.382V59.15z"/>
<path id="パス_15" fill="#FFFFFF" d="M400.368,124.734c0.331,0,0.6-0.269,0.6-0.6v-16.539c0-0.331-0.269-0.6-0.6-0.6H359.36
	v17.741L400.368,124.734z"/>
<path id="パス_16" fill="#FFFFFF" d="M407.732,41.546H359.36v17.6h48.372c0.332,0,0.601-0.269,0.601-0.6v-16.4
	C408.332,41.815,408.064,41.546,407.732,41.546"/>
<path id="パス_17" fill="#FFFFFF" d="M33.861,302.455h14.263c0.331,0,0.6-0.269,0.6-0.6v-15.428c0-0.331-0.269-0.6-0.6-0.6H2.271
	c-0.331,0-0.6,0.269-0.6,0.6v15.424c0,0.331,0.269,0.6,0.6,0.6h31.59V302.455z"/>
<path id="パス_18" fill="#FFFFFF" d="M50.247,380.392l-2.779-15.563c-0.056-0.326-0.366-0.546-0.692-0.49
	c-0.033,0.006-0.066,0.015-0.098,0.025c-4.18,1.438-8.557,2.774-12.818,4.065v-20.74H16.952v25.963
	c-5.726,1.615-11.274,3.114-16.5,4.458c-0.317,0.079-0.513,0.398-0.439,0.717l3.752,16.813c0.061,0.276,0.306,0.474,0.589,0.472
	c0.063,0,0.125-0.01,0.186-0.028c1.952-0.631,3.975-1.281,6.055-1.951c12.282-3.953,26.2-8.433,39.259-13.062
	c0.279-0.098,0.445-0.384,0.393-0.675"/>
<path id="パス_19" fill="#FFFFFF" d="M33.865,342.056h11.899c0.331,0,0.6-0.269,0.601-0.6v-15.149
	c-0.001-0.331-0.27-0.601-0.601-0.601H33.865v-17.62H16.952v17.615H3.521c-0.331,0-0.6,0.269-0.6,0.601v15.146
	c0,0.332,0.269,0.601,0.6,0.601h30.345V342.056z"/>
<path id="パス_20" fill="#FFFFFF" d="M132.19,388.37h-27.945v16.214h27.945c0.332,0,0.601-0.269,0.601-0.6v-15.011
	c0-0.332-0.269-0.601-0.601-0.601"/>
<path id="パス_21" fill="#FFFFFF" d="M98.611,376.377v-26.82h27.326c0.332,0,0.601-0.269,0.601-0.601v-64.612
	c0-0.331-0.269-0.6-0.601-0.6h-16.3v50.577H97.083v-10.746H104v-14.129h-6.917v-10.466H104v-15.24H83.734v50.577H68.876v-10.742
	h9.225v-14.129h-9.225v-10.466h9.225v-15.24h-24.7c-0.331,0-0.6,0.269-0.6,0.6v64.616c0,0.332,0.269,0.601,0.6,0.601h27.187V360.3
	H52.432c-0.331,0-0.6,0.269-0.6,0.6v14.867c0,0.331,0.269,0.6,0.6,0.6h28.159v11.994H42.844c-0.331,0-0.6,0.269-0.6,0.6v15.008
	c0,0.331,0.269,0.6,0.6,0.6h55.767V376.377z"/>
<path id="パス_22" fill="#FFFFFF" d="M127.466,376.377c0.331,0,0.6-0.269,0.6-0.601v-14.87c0-0.331-0.269-0.6-0.6-0.6h-23.222
	v16.074L127.466,376.377z"/>
<path id="パス_23" fill="#FFFFFF" d="M132.22,61.596c-0.053-0.216-0.22-0.385-0.435-0.438c-8.085-2.016-15.718-5.536-22.5-10.375
	c5.022-6.768,8.79-14.382,11.123-22.48h8.724c0.331,0,0.6-0.269,0.6-0.6l0,0V14.638c0-0.331-0.269-0.6-0.6-0.6l0,0h-28.037
	c-1.822,4.907-3.999,9.676-6.513,14.268h8.855c-1.335,4.219-3.274,8.222-5.757,11.885c-2.047-2.417-3.9-4.991-5.543-7.699
	c-2.579,4.207-5.54,8.168-8.844,11.834c1.4,2.193,2.918,4.311,4.547,6.342c-6.567,4.891-13.967,8.55-21.84,10.8l1.221-1.58
	c0.204-0.261,0.158-0.638-0.103-0.842c-0.021-0.017-0.042-0.031-0.064-0.044c-2.467-1.48-9.517-5.088-15.312-8.05h14.862
	c0.332,0,0.601-0.27,0.601-0.601l0,0v-12.56c2.407,2.426,4.641,5.02,6.681,7.762c0.098,0.143,0.251,0.236,0.422,0.257h0.006
	c10.801-9.377,17.47-22.516,21.131-31.771h-0.024c0.651-1.657,1.255-3.274,1.817-4.87c0.812-2.38,1.34-4.216,1.622-5.26
	c-0.013-0.046-0.03-0.09-0.054-0.131c-0.084-0.145-0.226-0.248-0.389-0.285l-14.728-3.34c-0.315-0.073-0.632,0.116-0.716,0.43
	c-3.117,11.387-8.691,21.616-15.766,28.981v-6.174c0-0.331-0.269-0.6-0.601-0.6l0,0H50.192v10.93h2.193v6.3h-2.193v24.07
	c3.364,2.353,6.354,4.536,8.258,6.043c0.258,0.208,0.636,0.167,0.843-0.091c0.003-0.003,0.005-0.006,0.008-0.009l4.866-6.274
	c2.389,2.455,4.587,5.089,6.574,7.879h11.38c5.878-2.602,11.399-5.942,16.432-9.941c4.638,3.967,9.774,7.308,15.28,9.939h10.935
	c2.021-3.44,4.465-6.615,7.273-9.449C132.204,62.039,132.273,61.812,132.22,61.596"/>
<path id="パス_24" fill="#FFFFFF" d="M44.56,68.826V19.271h23.991c0.331,0,0.6-0.269,0.6-0.6V7.69c0-0.331-0.269-0.6-0.6-0.6
	H44.56V0.603c0-0.331-0.269-0.6-0.6-0.6H29.505c-0.331,0-0.601,0.269-0.601,0.6l0,0v6.484H4.633c-0.331,0-0.6,0.269-0.6,0.6v10.98
	c0,0.331,0.269,0.6,0.6,0.6l0,0h24.269v3.518H7.69c-0.331,0-0.6,0.269-0.6,0.6l0,0v26.964c0,0.331,0.269,0.6,0.6,0.6h14.353
	c-6.159,5.092-13.039,9.243-20.414,12.319c-0.309,0.122-0.46,0.47-0.338,0.778c0.034,0.088,0.09,0.167,0.161,0.229
	c3.376,3.056,6.416,6.463,9.068,10.164c0.171,0.263,0.515,0.35,0.79,0.2c6.394-3.57,12.306-7.941,17.592-13.009v10.007H44.56V68.826
	z M28.902,40.018h-7.824v-6.3h7.824V40.018z"/>
<path id="パス_25" fill="#FFFFFF" d="M11.719,75.728c-0.331,0-0.6,0.269-0.6,0.601l0,0V89.39c0,0.331,0.269,0.6,0.6,0.6l0,0
	h45.806v24.222H40.252V93.978c0-0.331-0.269-0.6-0.601-0.6l0,0H23.808c-0.331,0-0.6,0.269-0.6,0.6l0,0v20.239H3.521
	c-0.331,0-0.6,0.269-0.6,0.6l0,0v13.479c0,0.331,0.269,0.6,0.6,0.6l0,0h71.33V89.996h46.362c0.331,0,0.6-0.269,0.6-0.601l0,0V76.331
	c0-0.332-0.269-0.601-0.6-0.601l0,0H11.719V75.728z"/>
<path id="パス_26" fill="#FFFFFF" d="M129.828,128.902c0.331,0,0.6-0.269,0.6-0.6l0,0V114.82c0-0.331-0.269-0.6-0.6-0.6l0,0
	H83.033v14.685L129.828,128.902z"/>
<path id="パス_27" fill="#FFFFFF" d="M110.097,108.615c0.331,0,0.6-0.269,0.6-0.6l0,0V95.923c0-0.331-0.269-0.601-0.6-0.601l0,0
	H83.033v13.301L110.097,108.615z"/>
<path id="パス_28" fill="#FFFFFF" d="M179.387,25.757c0,0.331,0.269,0.6,0.6,0.6l0,0h18.989v7.601c0,0.331,0.269,0.6,0.601,0.6
	l0,0h15.284c0.332,0,0.601-0.269,0.601-0.6l0,0v-7.601h19.357v7.601c0,0.331,0.269,0.6,0.601,0.6l0,0h15.575
	c0.331,0,0.6-0.269,0.6-0.6v-7.601h18.02c0.332,0,0.601-0.269,0.601-0.6V11.581c0-0.332-0.269-0.601-0.601-0.601h-18.02V1.437
	c0-0.331-0.269-0.6-0.6-0.6h-15.563c-0.331,0-0.6,0.269-0.6,0.6l0,0v9.54h-19.361v-9.54c0-0.331-0.269-0.6-0.6-0.6l0,0h-15.288
	c-0.332,0-0.601,0.269-0.601,0.6l0,0v9.54H184.66c-1.209,3.544-2.947,8.271-5.273,13.777V25.757z"/>
<path id="パス_29" fill="#FFFFFF" d="M267.113,59.332h-66.558c-0.331,0-0.6,0.269-0.6,0.6l0,0v70.17
	c0,0.332,0.269,0.601,0.6,0.601l0,0h13.756c0.332,0,0.601-0.269,0.601-0.601l0,0v-20.514h5.667V97.543h-5.667v-6.436h5.667V79.202
	h-5.667v-6.714h11.3v57.34c0,0.331,0.269,0.6,0.6,0.6h13.062c0.331,0,0.6-0.269,0.6-0.6v-20.24h6.37V97.543h-6.36v-6.436h6.36
	V79.202h-6.36v-6.714h11.993v43.723c0,1.063-0.052,1.063-0.925,1.063c-0.021,0-0.04,0-0.061,0c-1.353,0.135-4.838,0.135-8.673,0
	c-0.209-0.008-0.408,0.094-0.523,0.27c-0.117,0.174-0.134,0.396-0.045,0.587c1.824,3.888,3.025,8.038,3.559,12.3
	c0.021,0.312,0.278,0.555,0.59,0.559c0.954,0.019,1.868,0.029,2.747,0.029c5.963,0,10.226-0.488,13.544-2.331
	c3.262-1.863,5.028-4.381,5.028-12.335V59.935c0-0.331-0.269-0.6-0.6-0.6"/>
<path id="パス_30" fill="#FFFFFF" d="M270.308,38.211h-89.623c-0.331,0-0.6,0.269-0.6,0.6l0,0v30.291
	c0,16.5-1.143,35.101-9.354,49.021V42.927c-4.918,9.279-10.572,18.15-16.907,26.527v60.786c0,0.332,0.269,0.601,0.6,0.601l0,0h15.7
	c0.331,0,0.6-0.269,0.6-0.6v-0.001v-8.339c3.846,2.723,7.4,5.834,10.608,9.285c0.114,0.136,0.282,0.214,0.46,0.213h0.027
	c0.188-0.008,0.359-0.103,0.467-0.256c9.162-13.042,14-34.399,14-61.763v-15.79h74.013c0.331,0,0.6-0.269,0.6-0.601l0,0V38.814
	c0-0.331-0.269-0.6-0.6-0.6l0,0"/>
<path id="パス_31" fill="#FFFFFF" d="M180.858,4.75l-15.283-4.585c-0.317-0.099-0.653,0.079-0.751,0.396
	c-0.001,0.001-0.001,0.003-0.002,0.004c-6.199,20.716-16.44,40.685-27.392,53.415c-0.172,0.198-0.195,0.486-0.057,0.709
	c3.051,5.545,5.641,11.331,7.741,17.301c22.429-26.908,33.327-58.506,36-67.063c-0.069-0.08-0.159-0.14-0.26-0.173"/>
<path id="パス_32" fill="#FFFFFF" d="M512.742,38.55l5.261-2.255c0.305-0.129,0.449-0.48,0.32-0.786
	c-0.006-0.015-0.013-0.029-0.021-0.044c-2.318-4.514-6.683-12.144-9.692-16.601c-0.16-0.239-0.468-0.331-0.732-0.219l-9.535,3.983
	c-0.307,0.125-0.454,0.476-0.329,0.782c0.019,0.045,0.042,0.087,0.071,0.127c2.897,4.365,5.522,8.905,7.86,13.595l-10.266,4.448
	c-0.306,0.129-0.447,0.481-0.317,0.786c0.021,0.053,0.052,0.103,0.088,0.146c8.367,10.37,16.979,31.443,20.159,45.02
	c0.073,0.322,0.396,0.525,0.718,0.451c0.042-0.009,0.082-0.022,0.12-0.041l15.328-7c0.278-0.125,0.418-0.439,0.325-0.729
	c-3.323-10.561-12.22-30.393-19.357-41.666"/>
<path id="パス_33" fill="#FFFFFF" d="M490.325,50.324c-3.741-3.479-9.019-5.171-16.132-5.171c-1.12,0-2.429,0.048-3.886,0.12
	c-0.86,4.169-1.864,8.712-3.027,13.5c-0.113,0.471-0.231,0.948-0.35,1.428c0.931-0.051,1.758-0.082,2.435-0.082
	c7.679,0,11.101,1.5,11.101,10.38c0,11-1.531,26.081-4.888,33.169c-1.648,3.399-4.193,4.849-8.51,4.849
	c-4.928-0.314-9.808-1.156-14.557-2.51c-0.24-0.076-0.502,0.013-0.647,0.218c-0.037,0.089-0.074,0.179-0.112,0.269
	c-0.011,0.063-0.011,0.126,0,0.188l2.534,15.931c0.037,0.251,0.227,0.45,0.475,0.5c4.805,1.011,9.691,1.58,14.6,1.7
	c10.333,0,16.606-3.53,20.335-11.439c5.119-10.356,6.943-29.811,6.943-44.563c0-8.369-2.126-14.588-6.318-18.485"/>
<path id="パス_34" fill="#FFFFFF" d="M461.397,60.571h0.021c1.339-5.324,2.486-10.374,3.458-14.981h-0.078
	c0.455-2.312,0.934-4.621,1.399-6.863c0.25-1.207,0.492-2.372,0.718-3.478c0.971-5.284,1.624-9.445,2.005-12.039
	c-0.033-0.01-0.066-0.017-0.101-0.021l-17.982-1.81c-0.33-0.036-0.626,0.202-0.661,0.532c-0.003,0.029-0.004,0.059-0.003,0.088
	c0.213,6.693-0.586,14.84-2.442,24.891c-5.409,0.521-11.014,0.908-15.075,1.04c-0.806,0.022-1.6,0.047-2.377,0.073
	c-3.488,0.181-6.985,0.156-10.472-0.071c-0.33-0.029-0.621,0.215-0.65,0.545c-0.003,0.037-0.003,0.073,0.001,0.11L420.605,65
	c0.027,0.33,0.316,0.576,0.646,0.55c0.018-0.002,0.036-0.004,0.054-0.007c1.641-0.266,3.733-0.57,5.949-0.895
	c2.756-0.399,5.606-0.818,7.54-1.152c0.899-0.101,2.092-0.242,3.487-0.408c1.741-0.207,3.801-0.451,6.011-0.7
	c-3.2,11.666-11.509,38.568-24.17,55.669c-0.199,0.265-0.146,0.642,0.119,0.84c0.044,0.033,0.091,0.06,0.142,0.079l15.689,6.276
	c0.071,0.028,0.147,0.043,0.225,0.043l0,0c6.699-10.942,12.18-23.566,16.614-36.188C457.142,76.824,460.077,65.807,461.397,60.571"
	/>
<path id="パス_35" fill="#FFFFFF" d="M532.67,29.925c-2.907-5.683-6.146-11.189-9.7-16.491c-0.159-0.234-0.461-0.326-0.723-0.22
	l-9.655,3.863c-0.309,0.12-0.461,0.469-0.341,0.777c0.02,0.05,0.047,0.097,0.078,0.141c3.632,5.286,6.882,10.824,9.726,16.572
	c0.144,0.284,0.484,0.407,0.776,0.279l9.534-4.1c0.305-0.132,0.445-0.484,0.314-0.789c-0.005-0.01-0.009-0.02-0.014-0.029"/>
<path id="パス_36" fill="#CE0000" d="M168.088,167.393h99.58c0.331,0,0.6-0.269,0.6-0.6l0,0v-14.732c0-0.331-0.269-0.6-0.6-0.6
	l0,0h-48.725v-11.768c0-0.331-0.269-0.6-0.6-0.6l0,0h-17.23c-0.331,0-0.6,0.269-0.6,0.6l0,0v11.762h-48.87
	c-0.331,0-0.6,0.269-0.6,0.6l0,0v38.906c0,23.538-1.459,50.1-12.284,68.615c-0.169,0.284-0.075,0.652,0.21,0.821
	c0.021,0.013,0.043,0.024,0.066,0.034c4.813,2.357,9.287,5.354,13.3,8.907c0.112,0.113,0.267,0.178,0.427,0.177
	c0.025,0.002,0.051,0.002,0.076,0c0.186-0.022,0.35-0.131,0.443-0.292c9.829-16.633,14.813-42.963,14.813-78.258L168.088,167.393z"
	/>
<path id="パス_37" fill="#CE0000" d="M229.965,177.859v22.232h-24.082v-7.964h18.449v-14.269h-18.449v-4.833h-16.771v4.833
	h-18.153c-0.332,0-0.601,0.269-0.601,0.601l0,0v13.062c0,0.332,0.269,0.601,0.601,0.601l0,0h18.153V213.2
	c0,0.331,0.27,0.6,0.601,0.6l0,0h57.247c0.331,0,0.6-0.269,0.6-0.6l0,0v-21.073h19.405c0.331,0,0.6-0.269,0.6-0.601v-13.064
	c0-0.331-0.269-0.601-0.6-0.601h-19.396v-4.833h-17.6L229.965,177.859z"/>
<path id="パス_38" fill="#CE0000" d="M260.565,223.474c0.15-0.295,0.032-0.656-0.263-0.807c-0.003-0.001-0.005-0.002-0.007-0.003
	l-10.282-5.138c-0.127-0.063-0.272-0.08-0.41-0.047l-2.849,0.68h-74.823c-0.331,0-0.6,0.269-0.6,0.6v12.922
	c0,0.331,0.269,0.6,0.6,0.6h17.261l-3.294,1.192c-0.313,0.11-0.477,0.453-0.366,0.766c0.021,0.059,0.05,0.113,0.088,0.162
	c4.258,5.674,9.349,10.672,15.1,14.826c-11.35,3.039-22.958,5.01-34.674,5.889c-0.331,0.026-0.578,0.314-0.553,0.645
	c0.009,0.112,0.049,0.22,0.115,0.31c2.816,4.247,5.03,8.862,6.581,13.716c0.086,0.282,0.362,0.462,0.654,0.426
	c17.333-2.186,31.73-5.509,43.936-10.135c8.469-3.375,16.518-7.721,23.986-12.949c8.327-6.26,15.103-14.352,19.8-23.65
	 M204.208,232.286h29.979c-4.539,4.081-9.641,7.489-15.149,10.118C213.588,239.841,208.582,236.425,204.208,232.286"/>
<path id="パス_39" fill="#CE0000" d="M271.013,255.368c-0.081-0.219-0.28-0.371-0.512-0.391
	c-8.782-0.735-17.506-2.049-26.115-3.93c-6.028,4.305-12.452,8.026-19.185,11.115c11.459,4.089,23.354,6.837,35.446,8.188
	c0.024,0.002,0.049,0.002,0.073,0c0.231,0.001,0.443-0.132,0.543-0.341c2.581-5.072,5.814-9.785,9.618-14.018
	c0.162-0.168,0.212-0.413,0.13-0.631"/>
<path id="パス_40" fill="#CE0000" d="M351.189,198.734c0,0.007,0,0.012,0,0.017c5.5-0.113,10.985-0.34,16.3-0.741
	c0-0.023,0-0.045,0-0.068c3.615-0.271,7.283-0.636,10.967-1.071c2.646-0.362,5.209-0.787,7.666-1.284
	c0.04-0.08,0.062-0.167,0.063-0.256v-15.085c0.003-0.332-0.264-0.603-0.595-0.604c-0.045-0.001-0.089,0.004-0.132,0.013
	c-5.935,1.23-11.933,2.132-17.966,2.7c0.132-5.706,0.241-9.446,0.346-11.741c0.103-2.604,0.342-5.2,0.717-7.778
	c0.056-0.327-0.165-0.637-0.491-0.691c-0.036-0.007-0.072-0.01-0.108-0.009h-17.267c-0.331-0.003-0.602,0.264-0.604,0.596
	c0,0.042,0.004,0.085,0.013,0.126c0.48,2.591,0.759,5.215,0.833,7.849c0,1.007,0.02,2.422,0.042,4.061
	c0.033,2.429,0.074,5.42,0.078,8.757c-2.584,0.101-5.256,0.101-7.845,0.101c-7.034,0.011-14.063-0.351-21.059-1.083
	c-0.17-0.018-0.339,0.038-0.467,0.151c-0.128,0.114-0.2,0.278-0.2,0.449v14.364c0,0.317,0.246,0.58,0.563,0.6
	c7.2,0.488,14.121,0.726,21.162,0.726c1,0,2.013,0,3.033-0.007c1.07-0.011,2.143-0.024,3.216-0.042
	c0.573-0.014,1.149-0.027,1.727-0.049"/>
<path id="パス_41" fill="#CE0000" d="M392.015,242.078c-5.464-5.009-13.028-11.282-23.242-15.538l-0.078-1.311
	c-0.383-6.475-0.806-13.656-1.071-21.99c-5.336,0.4-10.823,0.624-16.314,0.737c0.108,3.646,0.253,7.271,0.4,10.815
	c0.106,2.618,0.209,5.1,0.289,7.48l-0.118-0.014c0.052,0.74,0.1,1.469,0.153,2.177c0.313,4.444,0.58,8.232,0.521,11.413l0.07,0.018
	v1.707c0,7.372-2.692,10.38-9.293,10.38c-3.968,0-10.621-0.831-10.621-6.4c0-4.179,4.264-6.88,10.862-6.88
	c1.257,0.003,2.512,0.075,3.761,0.216c0-2.783-0.241-6.166-0.519-10.088c-0.065-0.938-0.134-1.908-0.2-2.9
	c-0.591-0.013-1.199-0.02-1.834-0.02c-16.387,0-27.399,8.536-27.399,21.242s10.333,20.276,27.639,20.276
	c14.561,0,22.855-6.67,24.055-19.308c4.851,3.536,9.459,7.393,13.795,11.543c0.241,0.228,0.62,0.216,0.848-0.025
	c0.024-0.026,0.047-0.056,0.066-0.086l8.328-12.673c0.163-0.248,0.121-0.577-0.1-0.775"/>
<path id="パス_42" fill="#CE0000" d="M306.779,216.468c-0.254-0.212-0.633-0.178-0.845,0.077c-0.037,0.044-0.067,0.093-0.09,0.146
	c-0.559,1.269-1.153,2.562-1.727,3.812c-0.957,2.083-1.938,4.219-2.826,6.381c-0.172-2.082-0.2-4.129-0.2-5.362
	c0-11.787,3.851-37.968,5.779-46.577c0-0.011,0-0.021,0.006-0.032c0.661-3.6,1.575-7.148,2.735-10.619
	c0.126-0.307-0.021-0.657-0.328-0.782c-0.058-0.023-0.118-0.038-0.18-0.043l-16.656-1.448c-0.329-0.03-0.622,0.213-0.652,0.542
	c-0.001,0.014-0.002,0.027-0.002,0.04c-0.196,3.938-0.597,7.864-1.2,11.761c-0.129,0.9-0.279,1.932-0.446,3.071
	c-1.576,10.779-4.508,30.844-4.508,47.343c0,20.414,3.394,33.933,4.854,38.801c0.075,0.256,0.311,0.431,0.577,0.43h0.049
	l13.638-1.086c0.33-0.024,0.578-0.313,0.554-0.643c0-0.001,0-0.002,0-0.003c-0.09-1.254-0.24-3.559-0.24-4.904
	c0.04-1.861,0.237-3.715,0.59-5.542c1.532-6.9,5.63-19.752,8.672-28.661c0.082-0.238,0.007-0.503-0.189-0.662L306.779,216.468z"/>
<path id="パス_43" fill="#FFFFFF" d="M531.184,251.133c-2.877-5.539-8.317-13.828-13.116-21.143
	c-1.525-2.322-2.965-4.517-4.281-6.558c-0.162-0.254-0.487-0.348-0.76-0.22l-14.451,6.669c-0.302,0.137-0.436,0.492-0.299,0.794
	c0.009,0.02,0.019,0.039,0.03,0.058c1.389,2.386,2.899,4.916,4.491,7.601c4.625,7.769,9.409,15.8,11.877,21.252
	c0.134,0.303,0.488,0.438,0.791,0.305c0.012-0.006,0.023-0.011,0.034-0.017l15.423-7.921c0.296-0.15,0.414-0.511,0.265-0.807
	c-0.001-0.003-0.003-0.006-0.004-0.009"/>
<path id="パス_44" fill="#FFFFFF" d="M427.213,230.842l-14.729-5.836c-0.307-0.124-0.656,0.024-0.78,0.331
	c-0.012,0.029-0.021,0.059-0.028,0.089c-2.416,10.092-7.127,21.25-12,28.425c-0.188,0.273-0.119,0.646,0.153,0.835
	c0.025,0.017,0.052,0.032,0.078,0.045l15.146,7.5c0.083,0.042,0.175,0.063,0.268,0.063c0.212,0.001,0.409-0.11,0.518-0.292
	c3.935-6.521,7.883-16.761,11.735-30.439c0.086-0.298-0.069-0.612-0.358-0.725"/>
<path id="パス_45" fill="#FFFFFF" d="M460.756,173.924c0.331,0,0.6-0.269,0.6-0.601v-14.037c0-0.332-0.269-0.601-0.6-0.601H447.4
	v15.241L460.756,173.924z"/>
<path id="パス_46" fill="#FFFFFF" d="M454.059,207.356c0.223,0.245,0.603,0.264,0.848,0.041c0.039-0.035,0.073-0.075,0.102-0.12
	l8.614-13.199c0.17-0.257,0.118-0.601-0.119-0.796c-2.364-1.952-9.979-7.47-16.101-11.57v18.882c2.632,2.555,4.948,4.899,6.66,6.763
	"/>
<path id="パス_47" fill="#FFFFFF" d="M409.256,216.031c0.181,0.278,0.552,0.357,0.83,0.177c0.024-0.017,0.048-0.034,0.069-0.054
	c5.808-5.344,10.766-11.544,14.7-18.386v25.159c0,0.331,0.269,0.6,0.6,0.6h15.7c0.332,0,0.601-0.269,0.601-0.6v-83.232
	c0-0.331-0.269-0.6-0.601-0.6h-15.7c-0.331,0-0.6,0.269-0.6,0.6v18.989h-22.181c-0.331,0-0.6,0.269-0.6,0.601v14.033
	c0,0.332,0.269,0.601,0.6,0.601h19.21c-5.56,12.033-14.33,23.429-23.044,29.899c-0.268,0.196-0.325,0.571-0.13,0.839
	c0.032,0.045,0.071,0.085,0.115,0.118c3.955,3.276,7.462,7.06,10.43,11.251"/>
<path id="パス_48" fill="#FFFFFF" d="M476.678,221.862h45.911c0.331,0,0.6-0.269,0.6-0.6v-74.759c0-0.331-0.269-0.601-0.6-0.601
	h-16.444v61.833h-24.36v-7.13h18.729v-13.3h-18.729v-6.852h18.729V167.02h-18.729v-6.853h18.729V145.9h-34.338
	c-0.332,0-0.601,0.269-0.601,0.601v65.074c2.808,2.619,7.132,6.643,11.106,10.284"/>
<path id="パス_49" fill="#FFFFFF" d="M463.018,217.037l-11.395,9.171c-0.259,0.206-0.303,0.583-0.097,0.843
	c0.02,0.024,0.041,0.048,0.064,0.069c5.854,5.465,14.25,14.065,18.276,19.243c0.101,0.13,0.249,0.213,0.412,0.229
	c0.021,0.001,0.043,0.001,0.064,0c0.142,0,0.278-0.05,0.388-0.141l11.95-10c0.255-0.211,0.291-0.59,0.08-0.845
	c-0.003-0.004-0.006-0.008-0.01-0.012c-2.399-2.8-5.87-6.29-8.975-9.3c-3.426-3.134-7.166-6.601-10.037-9.278
	c-0.217-0.156-0.512-0.149-0.722,0.017"/>
<path id="パス_50" fill="#FFFFFF" d="M502.826,241.23c-4.71-0.856-11.459-3.229-14.6-5.716c-0.258-0.209-0.636-0.169-0.844,0.089
	c-0.08,0.099-0.127,0.221-0.134,0.349c-0.788,13.279-1.378,15.411-7.733,15.411h-22.232c-7.676,0-8.29-0.621-8.29-4.12v-18.758
	c0-0.331-0.269-0.6-0.6-0.6h-16.4c-0.331,0-0.6,0.269-0.6,0.6v19.037c0,7.9,1.5,12.5,5.013,15.4c3.6,2.97,9.386,4.237,19.351,4.237
	h25.012c15.811,0,20.448-5.2,22.555-25.273c0.034-0.314-0.181-0.601-0.492-0.656"/>
<path id="パス_51" fill="#FFFFFF" d="M552.417,269.197c0,0.332,0.27,0.601,0.601,0.601h15.7c0.331,0,0.6-0.269,0.6-0.601v-86.175
	c-4.912,9.357-10.566,18.307-16.908,26.761L552.417,269.197z"/>
<path id="パス_52" fill="#FFFFFF" d="M579.818,144.001c-0.074-0.146-0.205-0.253-0.36-0.3l-15.285-4.587
	c-0.317-0.097-0.652,0.081-0.75,0.397c-0.001,0.003-0.002,0.006-0.002,0.008c-6.2,20.716-16.44,40.685-27.392,53.415
	c-0.172,0.198-0.195,0.486-0.057,0.709c3.112,5.653,5.741,11.56,7.86,17.655c0.063,0.199,0.227,0.351,0.43,0.4
	c23.825-29.156,34.3-63.301,35.571-67.659C579.827,144.027,579.823,144.014,579.818,144.001"/>
<path id="パス_53" fill="#FFFFFF" d="M573.281,211.23c-0.319,0.088-0.508,0.418-0.42,0.737c0.031,0.113,0.094,0.215,0.182,0.292
	c2.523,2.271,6.311,7.081,8.573,9.954l0.528,0.67c0.16,0.205,0.435,0.283,0.679,0.193c7.339-2.641,14.447-5.883,21.252-9.693
	c0.911,0.825,1.75,1.657,2.5,2.481l-0.041,0.027c3.015,3.122,5.641,6.598,7.82,10.351c3.771,6.627,5.07,12.981,3.899,18.759
	c-0.399,3.448-1.461,6.223-2.981,7.635c-0.021,0.02-0.04,0.039-0.059,0.061c-0.842,1.084-2.017,1.861-3.344,2.212
	c-2.63,1.396-7.013,3.565-11.768,5.871c0.778,2.717,1.28,5.505,1.5,8.322c0.021,0.297,0.257,0.534,0.554,0.556
	c3.368,0.271,6.833,0.419,9.783,0.419h0.018c5.706-0.259,10.461-1.355,15.1-5.844c4.56-3.96,7.255-11.567,7.21-20.354
	c-0.07-13.909-6.422-27.444-17.474-37.367h-29.524c-4.448,1.746-9.146,3.332-13.992,4.717"/>
<path id="パス_54" fill="#FFFFFF" d="M611.185,248.946c2.9-4.86,3.009-10.46,0.335-16.693
	c-12.075,8.708-25.453,15.448-39.637,19.971c-0.319,0.092-0.503,0.424-0.411,0.742c0.029,0.104,0.088,0.199,0.167,0.273
	c3.295,3.389,6.15,7.179,8.5,11.28c6.94-3.228,21.047-10.016,27.6-13.351c1.13-0.712,2.276-1.452,3.441-2.221"/>
<path id="パス_55" fill="#FFFFFF" d="M669.305,213.374c0.248-0.22,0.272-0.599,0.053-0.848c-0.017-0.019-0.034-0.036-0.053-0.053
	l-11.116-9.866c-0.245-0.22-0.621-0.202-0.844,0.041c-2.227,2.4-5.223,5.294-8.491,8.212c1.583,4.841,3.582,9.536,5.975,14.032
	c4.81-3.438,9.957-7.522,14.476-11.516"/>
<path id="パス_56" fill="#FFFFFF" d="M671.014,250.333c-7.211-4.169-13.517-10.73-18.788-19.518
	c-3.137-5.203-5.722-10.721-7.712-16.462c-1.538-4.417-2.836-8.915-3.885-13.473h23.552c0.331,0,0.6-0.269,0.6-0.601v-32.935
	c0-0.331-0.269-0.6-0.6-0.6h-16.444v21.808h-18.663v-9.35h13.031v-12.462h-5.186c3.624-4.774,6.578-9.347,8.463-12.421
	c0.168-0.27,0.096-0.623-0.164-0.807l-9.727-6.948c-0.156-0.112-0.358-0.143-0.541-0.081l-2.825,0.942h-20.232
	c0.893-1.487,1.8-3.082,2.654-4.668c0.159-0.291,0.053-0.655-0.237-0.814c-0.059-0.032-0.122-0.055-0.188-0.065l-15.563-2.779
	c-0.264-0.048-0.527,0.084-0.646,0.324c-4.11,8.023-9.468,15.343-15.873,21.686l16.618,4.069c0.137-0.175,4.123-4.421,4.259-4.595
	h19.58c-1.401,2.146-2.935,4.202-4.591,6.158H580.15v12.08l0.191,0.178v21.276c0,0.332,0.269,0.601,0.6,0.601h44.391
	c3.144,14.967,7.192,27.158,12.371,37.258c5.911,11.525,13.141,20.075,22.101,26.138c0.14,0.097,0.314,0.128,0.479,0.087
	c0.165-0.039,0.306-0.146,0.388-0.295c2.779-4.771,6.298-9.07,10.424-12.74c0.26-0.206,0.303-0.584,0.097-0.844
	c-0.048-0.06-0.106-0.11-0.174-0.148 M613.139,188.554h-16.718v-9.35h16.718V188.554z"/>
<path id="パス_57" fill="#FFFFFF" d="M601.988,218.731c-8.746,5.092-18.054,9.15-27.736,12.092
	c-0.319,0.09-0.506,0.421-0.417,0.739c0.028,0.102,0.083,0.193,0.157,0.268c2.869,3.068,5.354,6.476,7.4,10.145
	c0.145,0.27,0.469,0.387,0.753,0.272c9.487-3.885,18.608-8.61,27.255-14.119c-2.085-3.42-4.573-6.575-7.412-9.4"/>
<path id="パス_58" fill="#FFFFFF" d="M751.989,173.485c0.075-1.199,0.075-2.29,0.075-3.119c0.132-2.1,0.607-8.456,0.841-10.322
	c0.044-0.329-0.188-0.631-0.516-0.674c-0.028-0.004-0.056-0.006-0.084-0.006h-17.5c-0.332-0.002-0.603,0.265-0.604,0.597
	c0,0.052,0.006,0.104,0.02,0.153c0.604,3.45,1.002,6.933,1.193,10.43c0.065,0.519,0.095,1.127,0.128,1.831
	c0.019,0.38,0.038,0.794,0.066,1.239c-4.729,0.071-9.9,0.161-15.183,0.252c-13.109,0.229-26.664,0.464-36.311,0.464
	c-0.331-0.001-0.6,0.268-0.6,0.6c0,0.006,0,0.012,0,0.018l0.362,14.601c0.003,0.163,0.073,0.318,0.193,0.429
	c0.121,0.109,0.28,0.166,0.443,0.158c16.142-0.919,34.8-1.574,51.286-1.8c0.086,2.23,0.095,4.53,0.1,6.778
	c-1.4-0.182-2.812-0.272-4.224-0.27c-6.384-0.108-12.582,2.144-17.406,6.325c-4.756,4.299-7.43,10.438-7.337,16.849
	c0,13.014,8.546,20.101,16.52,22.163c5.564-2.787,9.399-8.136,10.255-14.3c-0.776,0.232-1.584,0.348-2.395,0.344
	c-4.63,0.167-8.518-3.451-8.685-8.08c-0.005-0.123-0.007-0.246-0.006-0.369c0-6.219,4.5-9.052,8.69-9.052
	c2.928-0.088,5.688,1.368,7.268,3.834c0.166,1.054,0.271,2.116,0.314,3.182c1.388,10.515-1.111,19.023-7.149,24.843
	c0.076-0.011,0.15-0.019,0.227-0.029c-5.859,5.613-14.77,9.523-27.817,12.237c-0.325,0.064-0.536,0.381-0.471,0.706
	c0.023,0.119,0.083,0.229,0.171,0.313l12.914,12.794c0.154,0.152,0.378,0.211,0.587,0.153c13.572-3.783,23.894-10.3,30.676-19.38
	c5.453-7.244,8.397-16.067,8.388-25.134c0.133-5.865-1.372-11.651-4.345-16.709c0-2.515-0.028-5.29-0.057-8.227
	c-0.03-3-0.061-6.1-0.063-9.1h0.12v-14.722h-0.075"/>
<path id="パス_59" fill="#FFFFFF" d="M786.354,173.365c-3.636-0.069-10.788-0.018-18.36,0.037
	c-3.429,0.025-6.927,0.051-10.3,0.066v14.755c12.088,0.05,21.658,0.248,28.494,0.589c0.164,0.007,0.323-0.053,0.444-0.164
	c0.12-0.112,0.188-0.27,0.189-0.434l0.121-14.242c0.005-0.331-0.26-0.604-0.591-0.609c-0.001,0-0.001,0-0.001,0"/>
<path id="パス_60" fill="#FFFFFF" d="M881.069,207.812c-6.635-5.549-15.733-8.638-25.664-8.73
	c-5.971,4.676-11.908,9.624-17.812,14.845c4.072-1.155,8.289-1.728,12.522-1.7c14.2,0,24.5,7.411,24.5,17.621
	c0.233,6.191-2.979,12.004-8.346,15.1c-3.927,2.775-9.5,4.326-17.087,4.766c-1.541,0.112-3.147,0.168-4.861,0.168
	c-6.93,0-11.587-2.766-11.587-6.879c0-2.517,2.412-5.19,6.88-5.19c4.417,0,7.856,2.449,9.7,6.657
	c6.994-0.439,11.788-1.888,14.795-4.458c-3.844-9.279-12.938-14.992-24.619-14.992c-5.888-0.104-11.6,2.003-16.008,5.907
	c-3.864,3.444-6.112,8.349-6.2,13.524c0,12.011,12.358,20.4,30.053,20.4c13.93,0,25.406-3.482,33.188-10.07
	c7.266-6.149,11.105-14.688,11.105-24.689c0.015-8.639-3.867-16.823-10.565-22.279"/>
<path id="パス_61" fill="#FFFFFF" d="M846.085,199.836l-0.229,0.04c1.908-1.533,4.03-3.258,6.242-5.056
	c6.586-5.353,14.051-11.42,18.532-14.573c1.9-1.4,3.881-2.652,5.801-3.861c0.88-0.555,1.757-1.107,2.62-1.671
	c0.278-0.18,0.358-0.551,0.18-0.829c-0.007-0.011-0.015-0.021-0.022-0.032l-7.845-10.741c-0.154-0.212-0.429-0.3-0.678-0.216
	c-2.97,0.687-5.992,1.121-9.035,1.3c-6.8,0.601-32.512,1.085-39.052,1.085c-3.643,0.035-7.283-0.165-10.9-0.601
	c-0.176-0.024-0.354,0.029-0.488,0.148c-0.133,0.118-0.205,0.29-0.199,0.468l0.482,15.689c0.008,0.332,0.283,0.594,0.614,0.586
	c0.022-0.001,0.046-0.002,0.068-0.006c2.527-0.33,6.307-0.699,9.853-0.961c5.932-0.336,20.4-0.972,27.514-1.166
	c-4.717,4.063-12.274,10.232-18.451,15.276c-2.041,1.666-3.926,3.2-5.5,4.5c-1.906,1.583-4.349,3.624-7.066,5.9
	c-7.551,6.311-16.948,14.167-23.22,19.199c-0.26,0.206-0.304,0.584-0.098,0.843c0.013,0.017,0.026,0.032,0.041,0.048l10.983,11.345
	c0.07,0.071,0.156,0.124,0.252,0.154c12.424-13.096,25.649-25.407,39.6-36.862"/>
<path id="パス_62" fill="#FFFFFF" d="M374.05,319.887c-9.027-9.062-21.485-13.847-36.027-13.847c-30.879,0-56,23.444-56,52.261
	c0,9.856,2.607,18.935,7.339,25.561c4.683,6.554,10.991,10.164,17.766,10.164c12.784,0,23.626-13.755,31.354-39.771
	c2.646-8.828,4.736-17.812,6.259-26.9c-5.847-1.202-11.903-0.91-17.607,0.849c-1.307,7.629-3.103,15.166-5.375,22.564
	c-4.8,15.792-9.424,23.469-14.147,23.469c-4.3,0-8.931-5.477-8.931-17.5c0-11.507,9.049-29.492,29.124-34.175l0.092-0.023
	l0.124-0.03l0,0c5.775-1.39,11.784-1.5,17.606-0.325c0.006-0.036,0.012-0.073,0.018-0.109c15.2,2.847,24.246,14.451,24.246,31.162
	c0.15,7.741-2.64,15.252-7.808,21.017c-5.181,5.442-11.888,9.187-19.238,10.74c-3.676,0.869-7.402,1.51-11.157,1.92
	c-0.329,0.032-0.571,0.325-0.539,0.655c0.009,0.095,0.041,0.187,0.093,0.267l9.052,14.362c0.109,0.176,0.303,0.282,0.51,0.282
	c0.031,0,0.063-0.003,0.093-0.007c15.047-2.329,26.738-7.873,34.747-16.479c7.8-8.376,11.748-19.234,11.748-32.273
	c0-13.188-4.734-25.2-13.332-33.828"/>
<path id="パス_63" fill="#FFFFFF" d="M532.211,322.557c-0.047-0.2-0.192-0.363-0.387-0.431
	c-23.362-8.578-43.697-23.817-58.487-43.832c-0.113-0.158-0.296-0.252-0.49-0.251h-17.236c-0.207-0.001-0.399,0.104-0.51,0.279
	c-11.271,17.732-34.245,36.779-55.87,46.32c-0.304,0.131-0.444,0.484-0.313,0.788c0.029,0.068,0.071,0.13,0.123,0.183
	c3.795,4.138,7.029,8.757,9.617,13.739c0.143,0.299,0.501,0.427,0.8,0.284c0.002-0.001,0.005-0.002,0.007-0.003
	c7.884-3.808,15.447-8.244,22.616-13.27v8.975c0,0.331,0.269,0.6,0.601,0.6h64.89c0.331,0,0.601-0.269,0.601-0.6v-3.601
	c-5.798-3.751-11.392-7.806-16.761-12.147h-40.169c9.601-7.628,17.948-16.108,23.7-24.081c5.54,7.029,11.82,13.443,18.732,19.131
	c11.38,9.371,23.836,17.352,37.104,23.773c0.256,0.068,0.526-0.038,0.665-0.264c2.71-4.517,6.422-10.7,10.615-15.036
	c0.144-0.147,0.202-0.357,0.154-0.558"/>
<path id="パス_64" fill="#FFFFFF" d="M523.006,346.263H408.093c-0.331,0-0.6,0.269-0.6,0.6v15.285c0,0.331,0.269,0.6,0.6,0.6
	h114.912c0.331,0,0.6-0.269,0.6-0.6V346.87c0-0.331-0.269-0.6-0.6-0.6"/>
<path id="パス_65" fill="#FFFFFF" d="M501.302,400.434h0.01c1.626,2.209,3.14,4.5,4.535,6.862c0.345,0.548,0.69,1.103,1.036,1.664
	c0.038,0.021,0.078,0.037,0.12,0.049c0.053,0.015,0.106,0.021,0.161,0.021c0.11,0,0.218-0.03,0.313-0.087l15.423-9.31
	c0.285-0.17,0.378-0.538,0.209-0.822c-0.003-0.005-0.006-0.01-0.009-0.015c-6.533-10.427-19.367-24.83-31.934-35.843
	c-0.188-0.164-0.456-0.196-0.678-0.081l-14.59,7.642c-0.295,0.151-0.412,0.513-0.261,0.808c0.034,0.065,0.079,0.125,0.135,0.175
	c2.568,2.335,5.3,5.051,8.092,8.024C490.301,385.948,496.137,392.948,501.302,400.434"/>
<path id="パス_66" fill="#FFFFFF" d="M429.38,386.716l-20.617,0.683c-0.331,0.009-0.593,0.284-0.584,0.615
	c0.001,0.024,0.003,0.048,0.006,0.071l2.224,16.117c0.041,0.311,0.313,0.537,0.626,0.521c6.83-0.321,14.623-0.669,22.874-1.037
	c18.907-0.844,40.101-1.79,61.184-2.916c-4.04-5.581-8.463-10.874-13.237-15.841c-11.741,0.456-22.567,0.861-32.864,1.186
	c3.084-5.761,6.275-11.763,9.311-17.723H437.35c-2.371,6.057-5.15,12.461-7.966,18.323"/>
<path id="パス_67" fill="#FFFFFF" d="M591.023,370.853l10-13.478c0.186-0.245,0.156-0.591-0.068-0.801
	c-2.29-2.18-9.6-8.764-15.927-14.149c-4.734,6.365-9.864,12.427-15.358,18.148c-2.847,2.948-5.68,5.664-8.5,8.148v39.566
	c0,0.331,0.269,0.6,0.6,0.6h16.4c0.331,0,0.6-0.269,0.6-0.6v-50.829c4.4,4.848,8.65,9.89,11.28,13.399
	c0.113,0.152,0.293,0.242,0.482,0.241l0,0c0.19,0,0.37-0.091,0.483-0.244"/>
<path id="パス_68" fill="#FFFFFF" d="M583.284,335.965c5.597-8.21,10.268-17.014,13.928-26.25c0.107-0.269,0.009-0.575-0.235-0.73
	l-8.376-5.375h-46.557c-0.332,0-0.601,0.269-0.601,0.601v15.007c0,0.331,0.269,0.6,0.601,0.6h32.446
	c-9.043,15.59-23.188,29.608-38.014,37.633c-0.292,0.157-0.402,0.521-0.245,0.813c0.016,0.031,0.035,0.061,0.057,0.088
	c2.54,3.246,6.348,11.241,7.681,15.509c0.097,0.317,0.432,0.496,0.748,0.399c0.052-0.016,0.101-0.038,0.146-0.066
	c4.126-2.581,8.068-5.443,11.801-8.567c10.059-8.76,19.001-18.725,26.627-29.669"/>
<path id="パス_69" fill="#FFFFFF" d="M578.775,278.647c0-0.331-0.269-0.6-0.6-0.6h-16.4c-0.331,0-0.6,0.269-0.6,0.6v19.331h17.6
	V278.647z"/>
<path id="パス_70" fill="#FFFFFF" d="M666.822,337.887c0.332,0,0.601-0.269,0.601-0.601v-15.982c0-0.332-0.269-0.601-0.601-0.601
	h-20.025v17.187L666.822,337.887z"/>
<path id="パス_71" fill="#FFFFFF" d="M670.156,387.536h-23.36v17.325h23.36c0.331,0,0.601-0.269,0.601-0.6V388.14
	c0-0.332-0.27-0.601-0.601-0.601"/>
<path id="パス_72" fill="#FFFFFF" d="M641.163,337.887v-58.129c0-0.331-0.269-0.6-0.6-0.6h-16.952c-0.331,0-0.6,0.269-0.6,0.6
	V320.7h-25.8c-0.332,0-0.601,0.269-0.601,0.601v15.979c0,0.332,0.269,0.601,0.601,0.601h25.8v49.648h-31.494
	c-0.331,0-0.601,0.269-0.601,0.601v16.118c0,0.332,0.27,0.601,0.601,0.601h49.653v-66.961H641.163z"/>
<path id="パス_73" fill="#FFFFFF" d="M271.279,390.9c-2.877-5.539-8.315-13.828-13.115-21.142
	c-1.525-2.323-2.966-4.519-4.281-6.559c-0.162-0.253-0.487-0.348-0.76-0.22l-14.451,6.669c-0.302,0.137-0.436,0.492-0.3,0.794
	c0.01,0.02,0.02,0.039,0.03,0.059c1.389,2.385,2.9,4.916,4.491,7.6c4.626,7.769,9.41,15.8,11.877,21.251
	c0.135,0.303,0.489,0.438,0.792,0.305c0.012-0.006,0.023-0.011,0.034-0.017l15.423-7.921c0.296-0.149,0.414-0.511,0.265-0.807
	c-0.001-0.003-0.003-0.006-0.005-0.009"/>
<path id="パス_74" fill="#FFFFFF" d="M167.307,370.608l-14.729-5.836c-0.308-0.124-0.657,0.024-0.781,0.332
	c-0.012,0.028-0.021,0.058-0.028,0.088c-2.416,10.092-7.127,21.25-12,28.425c-0.188,0.273-0.119,0.646,0.153,0.835
	c0.024,0.017,0.051,0.032,0.078,0.045l15.146,7.5c0.083,0.042,0.175,0.063,0.269,0.063c0.212,0.001,0.408-0.11,0.517-0.292
	c3.936-6.521,7.883-16.761,11.736-30.44c0.086-0.298-0.069-0.611-0.358-0.725"/>
<path id="パス_75" fill="#FFFFFF" d="M200.849,313.692c0.331,0,0.601-0.269,0.601-0.6v-14.038c0-0.332-0.27-0.601-0.601-0.601
	h-13.354v15.241L200.849,313.692z"/>
<path id="パス_76" fill="#FFFFFF" d="M194.154,347.122c0.224,0.246,0.603,0.264,0.848,0.041c0.039-0.035,0.073-0.075,0.102-0.119
	l8.615-13.2c0.169-0.257,0.116-0.6-0.121-0.794c-2.364-1.953-9.979-7.471-16.1-11.571v18.882c2.632,2.556,4.947,4.9,6.658,6.764"/>
<path id="パス_77" fill="#FFFFFF" d="M149.352,355.799c0.181,0.277,0.553,0.356,0.83,0.176c0.024-0.016,0.048-0.034,0.07-0.053
	c5.808-5.345,10.765-11.546,14.7-18.388v25.159c0,0.331,0.269,0.601,0.6,0.601h15.7c0.331,0,0.6-0.27,0.6-0.601v-83.23
	c0-0.332-0.269-0.601-0.6-0.601h-15.7c-0.331,0-0.6,0.269-0.6,0.601v18.988H142.77c-0.331,0-0.6,0.269-0.6,0.601v14.033
	c0,0.332,0.269,0.601,0.6,0.601h19.21c-5.56,12.033-14.33,23.429-23.044,29.899c-0.268,0.195-0.326,0.571-0.131,0.839
	c0.033,0.045,0.072,0.085,0.116,0.12c3.956,3.275,7.463,7.059,10.43,11.25"/>
<path id="パス_78" fill="#FFFFFF" d="M216.773,361.63h45.911c0.331,0,0.601-0.27,0.601-0.601v-74.759c0-0.331-0.27-0.6-0.601-0.6
	h-16.442v61.833h-24.36v-7.13h18.728v-13.301h-18.728v-6.852h18.728v-13.435h-18.728v-6.852h18.728v-14.268h-34.338
	c-0.331,0-0.6,0.269-0.6,0.6v65.077c2.807,2.62,7.131,6.643,11.105,10.285"/>
<path id="パス_79" fill="#FFFFFF" d="M203.108,356.802l-11.394,9.171c-0.26,0.206-0.303,0.584-0.097,0.843
	c0.02,0.024,0.041,0.047,0.063,0.068c5.854,5.465,14.25,14.065,18.277,19.244c0.1,0.129,0.249,0.212,0.412,0.229
	c0.021,0.001,0.042,0.001,0.063,0c0.142,0,0.279-0.05,0.387-0.141l11.949-10c0.256-0.211,0.292-0.59,0.081-0.845
	c-0.003-0.004-0.007-0.008-0.01-0.012c-2.4-2.8-5.87-6.29-8.975-9.3c-3.428-3.134-7.166-6.6-10.037-9.278
	c-0.218-0.156-0.512-0.149-0.723,0.017"/>
<path id="パス_80" fill="#FFFFFF" d="M242.921,381.001c-4.71-0.856-11.459-3.229-14.601-5.717
	c-0.257-0.208-0.635-0.169-0.844,0.089c-0.08,0.099-0.127,0.221-0.133,0.349c-0.789,13.28-1.378,15.412-7.734,15.412h-22.232
	c-7.676,0-8.29-0.622-8.29-4.121v-18.761c0-0.332-0.269-0.601-0.601-0.601h-16.399c-0.331,0-0.601,0.269-0.601,0.601v19.036
	c0,7.9,1.5,12.5,5.014,15.4c3.6,2.97,9.386,4.237,19.351,4.237h25.011c15.812,0,20.449-5.2,22.556-25.274
	c0.034-0.314-0.181-0.602-0.492-0.657"/>
<g id="楕円形_1" transform="translate(1022 475)">
	<circle fill="none" cx="-319.001" cy="-88.109" r="21"/>
	<path fill="#FFFFFF" d="M-319.001-67.109c-11.579,0-21-9.421-21-21s9.421-21,21-21s21,9.421,21,21S-307.422-67.109-319.001-67.109z
		 M-319.001-100.109c-6.617,0-12,5.383-12,12s5.383,12,12,12s12-5.383,12-12S-312.384-100.109-319.001-100.109z"/>
</g>
</svg>
