<?xml version="1.0" encoding="utf-8"?>
<!-- Generator: Adobe Illustrator 27.5.0, SVG Export Plug-In . SVG Version: 6.00 Build 0)  -->
<svg version="1.1" id="レイヤー_1" xmlns="http://www.w3.org/2000/svg" xmlns:xlink="http://www.w3.org/1999/xlink" x="0px"
	 y="0px" viewBox="0 0 205.3 38.1" style="enable-background:new 0 0 205.3 38.1;" xml:space="preserve">
<style type="text/css">
	.st0{enable-background:new    ;}
	.st1{fill:#FFFFFF;}
</style>
<g class="st0">
	<path class="st1" d="M29.5,37.3v-0.7l2.2-0.6c2.1-0.6,2.5-0.9,2.4-5.2l-0.5-19.1c0-1.8,0-3.1,0-4.5h-0.1c-0.4,1-1,2.7-1.6,4.4
		L21.7,37.3h-1.9L9.6,12.2C9,10.6,8.3,9,7.9,7.8H7.8c0,0.5,0,2.3,0,4.6L7.6,23.9C7.4,34.3,8,35.4,10.1,36l2.5,0.6v0.7H0.3v-0.7
		L2.5,36c2-0.6,2.2-1.6,2.4-9.7L5.2,10c0.1-4.2-0.8-4.6-2.9-5.2L0,4.3V3.6h11.4l8.7,22.1c0.5,1.3,1.6,3.9,1.7,5.1h0.1
		c0.1-1,1.2-3.5,1.9-5.2l8.8-22.1h10.6v0.7l-2.2,0.6c-2.1,0.5-2.5,0.9-2.4,5.2l0.5,20.9c0.1,4.3,0.3,4.6,2.4,5.2l2.2,0.6v0.7H29.5z"
		/>
	<path class="st1" d="M60.2,37.3H46.9v-0.7l2.2-0.6c2.1-0.6,2.4-0.9,2.4-5.2V10.1c0-4.3-0.3-4.7-2.4-5.2l-2.2-0.5V3.7
		c4.6-0.2,9.3-0.3,13.9-0.3c4.7,0,12,0.9,12,7.5c0,4.4-5,7-7.2,7.6v0.2c4.4,0.1,8.8,3.1,8.8,8.4C74.4,34.6,67,37.3,60.2,37.3z
		 M59.1,5.2c-0.9,0-1.7,0.1-2.6,0.1v13.1h3c4.3,0,7.8-2,7.8-6.7C67.4,6.7,63.5,5.2,59.1,5.2z M60,20.2h-3.4v10.2
		c0,4.7,0.7,5.2,2.8,5.2h0.8c4.3,0,8.5-1.9,8.5-7.8C68.6,21.5,64.4,20.2,60,20.2z"/>
	<path class="st1" d="M102.2,37.6l-5.5-14.4l-5.3,14.4h-3l-7.2-18.8c-1.4-3.7-1.7-4.1-2.8-4.5l-1.2-0.5v-0.6h11.2v0.6l-1.9,0.5
		c-1.5,0.4-1.7,1.3-0.2,5.5l3.6,10c0.7,1.9,0.9,2.6,1,3.5h0.1c0.1-0.9,0.4-1.4,1.1-3.6l3.3-9.6l-0.5-1.3c-1.4-3.7-1.7-4.1-2.8-4.5
		l-1.2-0.5v-0.6h11.2v0.6l-1.9,0.5c-1.5,0.4-1.7,1.3-0.2,5.5l3.6,10c0.7,1.9,0.9,2.6,1,3.5h0.1c0.2-0.9,0.4-1.4,1.1-3.6l3.4-9.9
		c1.6-4.5,0.9-5.1-0.7-5.5l-1.9-0.5v-0.6h9.1v0.6l-1.1,0.5c-1,0.5-1.4,0.8-2.8,4.5l-6.9,18.8H102.2z"/>
	<path class="st1" d="M128,38.1c-7.2,0-11.7-4.9-11.7-12.3c0-7.3,4.9-13.7,12.6-13.7c7.2,0,11.7,5,11.7,12.4
		C140.7,31.8,135.7,38.1,128,38.1z M127.7,13.9c-4.9,0-6.5,4.8-6.5,9.2c0,4.8,2.1,13.3,7.9,13.3c5.2,0,6.8-5,6.8-9.4
		C135.9,22.5,133.6,13.9,127.7,13.9z"/>
	<path class="st1" d="M144,37.3v-0.6l1.9-0.5c1.8-0.5,2-0.8,2-4.4V19.2c0-3.6-0.7-3.9-2.6-4.3l-2.1-0.5v-0.6l8.3-1.2l0.3,0.2v4h0.1
		c2.4-3,4.3-4.5,6.7-4.5c1.8,0,3.2,1.3,3.2,3c0,1.6-1.3,2.7-2.7,2.7l-0.2-0.1c-0.5-1.1-1.6-1.9-3-1.9c-2.1,0-3.6,1.6-3.6,3v12.7
		c0,3.6,0.5,3.8,2.2,4.2l2.9,0.7v0.6H144z"/>
	<path class="st1" d="M163.3,37.3v-0.6l1.9-0.5c1.8-0.5,2-0.8,2-4.4V6.6c0-3.7-0.3-3.9-2.1-4.3l-2.1-0.5V1.2l8.2-1.2l0.3,0.2v31.6
		c0,3.6,0.2,4,2,4.4l1.9,0.5v0.6H163.3z M181.2,37.3L172,23.8l5.2-5c3.1-2.9,2.7-4.1,1.4-4.4l-1.9-0.5v-0.6h11.3v0.6l-2,0.5
		c-1.8,0.5-3.3,1.8-5.9,4.4l-4.1,3.9l6.6,9.1c2.2,3,2.9,3.9,4.6,4.5l1.5,0.5v0.6H181.2z"/>
	<path class="st1" d="M196.8,37.8c-1.8,0-4.5-0.5-6-1.3l-0.5-6.4l1-0.2l0.7,2c0.6,1.9,1.8,3.9,5.2,3.9c2.4,0,4.7-1.5,4.7-4
		c0-2.9-2.8-4.1-6-5.7c-3-1.5-5.4-3.2-5.4-6.7c0-4.3,3.9-6.9,7.9-6.9c1.2,0,3.2,0.2,5.4,1.2v5.9h-0.9l-0.5-1.9
		c-0.5-2-1.7-3.2-4.5-3.2c-2.5,0-4,1.5-4,3.3c0,2.4,2.1,3.3,6.1,5.2c3.5,1.7,5.4,3.5,5.4,7.2C205.3,34,202.1,37.8,196.8,37.8z"/>
</g>
</svg>
