<?xml version="1.0" encoding="utf-8"?>
<!-- Generator: Adobe Illustrator 27.5.0, SVG Export Plug-In . SVG Version: 6.00 Build 0)  -->
<svg version="1.1" id="レイヤー_1" xmlns="http://www.w3.org/2000/svg" xmlns:xlink="http://www.w3.org/1999/xlink" x="0px"
	 y="0px" viewBox="0 0 221.6 38.1" style="enable-background:new 0 0 221.6 38.1;" xml:space="preserve">
<style type="text/css">
	.st0{fill:#D01F2C;}
</style>
<g>
	<path class="st0" d="M29.5,37.3v-0.7l2.2-0.6c2.1-0.5,2.5-0.8,2.4-5.1l-0.5-19.1c0-1.8,0-3.2,0-4.6h-0.1c-0.4,1-1,2.7-1.6,4.4
		L21.7,37.3h-1.9L9.6,12.2C9,10.6,8.3,9,7.9,7.8H7.8c0,0.5,0,2.3,0,4.6L7.6,23.9C7.4,34.3,8,35.4,10.1,36l2.5,0.6v0.7H0.3v-0.7
		L2.5,36c2-0.5,2.2-1.6,2.4-9.7L5.2,10c0.1-4.2-0.8-4.6-2.9-5.2L0,4.2V3.6h11.4l8.7,22.1c0.5,1.4,1.6,3.9,1.7,5.1h0.1
		c0.1-1,1.2-3.5,1.9-5.2l8.8-22.1h10.6v0.7l-2.2,0.6c-2.1,0.6-2.5,0.9-2.4,5.2l0.5,20.9c0.1,4.3,0.3,4.6,2.4,5.1l2.2,0.6v0.7H29.5z"
		/>
	<path class="st0" d="M62.7,37.3H49.4v-0.7l2.2-0.6c2.1-0.5,2.4-0.8,2.4-5.1V10.1c0-4.3-0.3-4.7-2.4-5.2l-2.2-0.6V3.7
		c4.6-0.2,9.3-0.4,13.9-0.4c4.7,0,12,0.9,12,7.5c0,4.4-5,7-7.2,7.6v0.2c4.4,0.1,8.8,3.1,8.8,8.4C76.9,34.6,69.5,37.3,62.7,37.3z
		 M61.6,5.2c-0.9,0-1.7,0-2.6,0.1v13.1h3c4.3,0,7.8-2,7.8-6.7C69.9,6.7,66,5.2,61.6,5.2z M62.5,20.2h-3.4v10.2
		c0,4.7,0.7,5.1,2.8,5.1h0.8c4.3,0,8.5-1.9,8.5-7.8C71.1,21.5,66.9,20.2,62.5,20.2z"/>
	<path class="st0" d="M107.2,37.6l-5.5-14.4l-5.3,14.4h-3l-7.2-18.8c-1.4-3.7-1.7-4.1-2.8-4.5l-1.2-0.5v-0.6h11.2v0.6l-1.9,0.5
		c-1.5,0.4-1.7,1.3-0.2,5.5l3.6,10c0.7,1.9,0.9,2.6,1,3.5h0.1c0.1-0.9,0.4-1.4,1.1-3.6l3.3-9.6l-0.5-1.4c-1.4-3.7-1.7-4.1-2.8-4.5
		l-1.2-0.5v-0.6h11.2v0.6l-1.9,0.5c-1.5,0.4-1.7,1.3-0.2,5.5l3.6,10c0.7,1.9,0.9,2.6,1,3.5h0.1c0.2-0.9,0.4-1.4,1.1-3.6l3.4-9.9
		c1.6-4.5,0.9-5.1-0.7-5.5l-1.9-0.5v-0.6h9.1v0.6l-1.1,0.5c-1,0.4-1.4,0.8-2.8,4.5l-6.9,18.8H107.2z"/>
	<path class="st0" d="M136.8,38.1c-7.2,0-11.7-4.9-11.7-12.3c0-7.3,4.9-13.7,12.6-13.7c7.2,0,11.7,5,11.7,12.4
		C149.5,31.8,144.5,38.1,136.8,38.1z M136.5,13.9c-4.9,0-6.5,4.8-6.5,9.3c0,4.8,2.1,13.3,7.9,13.3c5.2,0,6.8-5,6.8-9.4
		C144.6,22.5,142.4,13.9,136.5,13.9z"/>
	<path class="st0" d="M155.3,37.3v-0.6l1.8-0.5c1.8-0.5,2-0.8,2-4.4V19.2c0-3.7-0.7-3.9-2.5-4.3l-2-0.5v-0.6l8.3-1.2l0.3,0.2v4h0
		c2.5-3,4.3-4.5,6.7-4.5c1.8,0,3.2,1.4,3.2,3c0,1.6-1.3,2.7-2.7,2.7l-0.2-0.1c-0.5-1-1.6-1.9-3-1.9c-2.1,0-3.7,1.6-3.7,3v12.7
		c0,3.7,0.5,3.9,2.2,4.3l2.9,0.6v0.6H155.3z"/>
	<path class="st0" d="M177.1,37.3v-0.6l1.9-0.5c1.8-0.5,2-0.8,2-4.4V6.6c0-3.7-0.3-3.9-2.2-4.3l-2-0.4V1.2l8.2-1.2l0.3,0.2v31.6
		c0,3.7,0.2,4,2,4.4l1.9,0.5v0.6H177.1z M195,37.3l-9.2-13.6l5.2-5c3-2.9,2.7-4.1,1.3-4.4l-2-0.5v-0.6h11.3v0.6l-2,0.5
		c-1.8,0.5-3.2,1.9-5.9,4.4l-4.1,3.9l6.6,9.1c2.2,3,2.9,3.9,4.6,4.5l1.5,0.5v0.6H195z"/>
	<path class="st0" d="M213.1,37.8c-1.8,0-4.5-0.5-6-1.3l-0.5-6.4l1-0.2l0.6,2.1c0.6,1.9,1.8,3.9,5.2,3.9c2.4,0,4.7-1.5,4.7-4.1
		c0-2.9-2.8-4.1-6-5.7c-3-1.5-5.3-3.2-5.3-6.7c0-4.4,3.9-6.9,7.8-6.9c1.2,0,3.3,0.2,5.4,1.1v5.9h-0.9l-0.5-1.9
		c-0.5-2-1.7-3.3-4.5-3.3c-2.5,0-4,1.6-4,3.3c0,2.4,2.1,3.3,6.1,5.3c3.5,1.7,5.4,3.6,5.4,7.2C221.6,34,218.4,37.8,213.1,37.8z"/>
</g>
</svg>
